<svg width="237" height="51" viewBox="0 0 237 51" fill="none" xmlns="http://www.w3.org/2000/svg">
<mask id="mask0_1050_8085" style="mask-type:alpha" maskUnits="userSpaceOnUse" x="0" y="10" width="113" height="37">
<path d="M96.848 46.6216C96.3677 46.6216 95.894 46.5949 95.427 46.5416C94.9733 46.5016 94.593 46.455 94.2861 46.4017V42.6227C94.4729 42.6494 94.7064 42.6827 94.9866 42.7227C95.2668 42.7627 95.5871 42.7827 95.9473 42.7827C96.9081 42.7827 97.6686 42.6161 98.229 42.2828C98.7895 41.9629 99.2298 41.3564 99.55 40.4633L99.8502 39.6036L92.2246 18.3895H97.6486L102.933 36.3845L102.172 35.3448H103.233L102.472 36.3845L107.756 18.3895H113L105.354 40.3034C104.821 41.8496 104.173 43.0826 103.413 44.0023C102.652 44.9354 101.732 45.6019 100.651 46.0018C99.5834 46.415 98.3158 46.6216 96.848 46.6216Z" fill="url(#paint0_linear_1050_8085)"/>
<path d="M83.422 39.5089C82.4079 39.5089 80.883 39.3341 80.273 39.2423C79.8119 39.1802 78.2101 38.6641 77.8819 38.5599C77.5537 38.4556 76.8571 38.2186 76.174 37.8774C75.4908 37.5361 74.8558 37.154 74.466 36.8537C74.0762 36.5533 73.4697 35.9563 73.0997 35.4887C72.7297 35.0211 71.7333 34.465 71.7333 30.7114C71.7333 26.9578 71.7333 10.2371 71.7333 10.2371H76.717V21.534H76.8171C77.2308 20.6809 77.7645 19.9544 78.4183 19.3546C79.0721 18.7414 79.826 18.2749 80.68 17.955C81.534 17.6217 82.4613 17.4551 83.4621 17.4551C85.2367 17.4551 86.7779 17.9016 88.0855 18.7947C89.3931 19.6745 90.4072 20.9408 91.1278 22.5937C91.8483 24.2332 92.2086 26.1927 92.2086 28.472V28.492C92.2086 30.758 91.8483 32.7175 91.1278 34.3704C90.4206 36.0232 89.4065 37.2962 88.0855 38.1893C86.7779 39.069 85.2234 39.5089 83.422 39.5089ZM81.9409 35.3301C83.0084 35.3301 83.9291 35.0568 84.703 34.5103C85.4902 33.9505 86.0907 33.1574 86.5043 32.131C86.918 31.1046 87.1248 29.8916 87.1248 28.492V28.472C87.1248 27.0591 86.9113 25.8461 86.4843 24.833C86.0707 23.82 85.4769 23.0402 84.703 22.4937C83.9291 21.9338 83.0084 21.6539 81.9409 21.6539C80.9135 21.6539 80.0062 21.9338 79.2189 22.4937C78.445 23.0535 77.8312 23.8466 77.3775 24.873C76.9239 25.8861 76.697 27.0857 76.697 28.472V28.492C76.697 29.8783 76.9172 31.0846 77.3575 32.111C77.8112 33.1374 78.4316 33.9305 79.2189 34.4903C80.0062 35.0502 80.9135 35.3301 81.9409 35.3301Z" fill="url(#paint1_linear_1050_8085)"/>
<path d="M59.5109 39.5089C58.4968 39.5089 56.9719 39.3341 56.3619 39.2423C55.9008 39.1802 54.299 38.6641 53.9708 38.5599C53.6426 38.4556 52.946 38.2186 52.2629 37.8774C51.5797 37.5361 50.9447 37.154 50.5549 36.8537C50.1651 36.5533 49.5586 35.9563 49.1886 35.4887C48.8186 35.0211 47.8222 34.465 47.8222 30.7114C47.8222 26.9578 47.8222 10.2371 47.8222 10.2371H52.8059V21.534H52.906C53.3197 20.6809 53.8534 19.9544 54.5072 19.3546C55.161 18.7414 55.9149 18.2749 56.7689 17.955C57.6229 17.6217 58.5502 17.4551 59.551 17.4551C61.3256 17.4551 62.8668 17.9016 64.1744 18.7947C65.482 19.6745 66.4961 20.9408 67.2167 22.5937C67.9372 24.2332 68.2975 26.1927 68.2975 28.472V28.492C68.2975 30.758 67.9372 32.7175 67.2167 34.3704C66.5095 36.0232 65.4954 37.2962 64.1744 38.1893C62.8668 39.069 61.3123 39.5089 59.5109 39.5089ZM58.0298 35.3301C59.0973 35.3301 60.018 35.0568 60.7919 34.5103C61.5791 33.9505 62.1796 33.1574 62.5932 32.131C63.0069 31.1046 63.2137 29.8916 63.2137 28.492V28.472C63.2137 27.0591 63.0002 25.8461 62.5732 24.833C62.1596 23.82 61.5658 23.0402 60.7919 22.4937C60.018 21.9338 59.0973 21.6539 58.0298 21.6539C57.0024 21.6539 56.0951 21.9338 55.3078 22.4937C54.5339 23.0535 53.9201 23.8466 53.4664 24.873C53.0128 25.8861 52.7859 27.0857 52.7859 28.472V28.492C52.7859 29.8783 53.0061 31.0846 53.4464 32.111C53.9001 33.1374 54.5205 33.9305 55.3078 34.4903C56.0951 35.0502 57.0024 35.3301 58.0298 35.3301Z" fill="url(#paint2_linear_1050_8085)"/>
<path d="M9.86734 39.401C8.45296 39.401 7.19202 39.201 6.08453 38.8011C4.97704 38.4012 4.02967 37.8347 3.24242 37.1016C2.46851 36.3551 1.86807 35.4754 1.44108 34.4623C1.0141 33.436 0.773919 32.3029 0.720546 31.0633L0.700531 30.8633H5.74428V31.0033C5.79765 31.7364 5.98446 32.3963 6.3047 32.9828C6.62493 33.5693 7.07861 34.0358 7.66571 34.3824C8.25281 34.7156 8.96668 34.8822 9.8073 34.8822C11.2083 34.8822 12.2691 34.4757 12.9897 33.6626C13.7235 32.8361 14.0905 31.6365 14.0905 30.0636V10.0492H19.2343V30.1236C19.2343 32.0563 18.8607 33.7159 18.1135 35.1022C17.3796 36.4884 16.3121 37.5548 14.9111 38.3013C13.5234 39.0344 11.8421 39.401 9.86734 39.401Z" fill="url(#paint3_linear_1050_8085)"/>
<mask id="mask1_1050_8085" style="mask-type:alpha" maskUnits="userSpaceOnUse" x="14" y="14" width="37" height="37">
<path d="M36.0655 21.3557C35.4906 21.0239 34.8075 20.9339 34.1664 21.1057C33.5253 21.2775 32.9786 21.697 32.6467 22.2718L32.2296 22.9942L27.1724 20.0745C26.5976 19.7426 25.9144 19.6526 25.2733 19.8244C24.6322 19.9962 24.0855 20.4157 23.7537 20.9905L22.5991 22.9903L31.9073 32.2753C32.2165 32.5836 32.6011 32.8056 33.0228 32.9193L45.7179 36.3379L46.8725 34.3381C47.2043 33.7633 47.2943 33.0802 47.1225 32.4391C46.9507 31.7979 46.5312 31.2513 45.9564 30.9194L40.8992 27.9996L41.3163 27.2772C41.6482 26.7023 41.7381 26.0192 41.5663 25.3781C41.3945 24.7369 40.9751 24.1903 40.4002 23.8584L36.0655 21.3557ZM35.2312 22.8007L39.566 25.3033C39.7576 25.414 39.8974 25.5962 39.9547 25.8099C40.012 26.0236 39.982 26.2513 39.8714 26.4429L39.4543 27.1654L33.6746 23.8285L34.0917 23.106C34.2023 22.9144 34.3845 22.7746 34.5982 22.7173C34.8119 22.6601 35.0396 22.69 35.2312 22.8007Z" fill="black"/>
<path d="M17.0799 32.5499C16.748 33.1247 16.658 33.8078 16.8298 34.449C17.0016 35.0901 17.4211 35.6367 17.9959 35.9686L36.7799 46.8136C37.3548 47.1455 38.0379 47.2354 38.679 47.0636C39.3201 46.8918 39.8668 46.4724 40.1987 45.8975L44.912 37.7337L31.7897 34.1975C31.6487 34.1596 31.5202 34.0854 31.4169 33.9823L21.7932 24.3861L17.0799 32.5499Z" fill="black"/>
</mask>
<g mask="url(#mask1_1050_8085)">
<circle cx="33.2925" cy="30.3518" r="11.4386" transform="rotate(15 33.2925 30.3518)" fill="#FF8E00"/>
</g>
</mask>
<g mask="url(#mask0_1050_8085)">
<rect y="4.2473" width="118.189" height="48.5054" fill="url(#paint4_linear_1050_8085)"/>
</g>
<path d="M124.818 38V18.2715H137.342V20.9238H127.881V26.666H136.836V29.2363H127.881V35.3477H137.342V38H124.818ZM140.145 38V23.6172H143.125V25.8457H143.18C143.49 25.0892 143.995 24.4831 144.697 24.0273C145.399 23.5716 146.219 23.3438 147.158 23.3438C147.814 23.3438 148.407 23.4531 148.936 23.6719C149.473 23.8906 149.934 24.2142 150.316 24.6426C150.699 25.0618 150.982 25.5723 151.164 26.1738H151.232C151.479 25.5905 151.82 25.0892 152.258 24.6699C152.704 24.2415 153.219 23.9134 153.803 23.6855C154.395 23.4577 155.033 23.3438 155.717 23.3438C156.665 23.3438 157.49 23.5443 158.191 23.9453C158.893 24.3372 159.44 24.8887 159.832 25.5996C160.224 26.3105 160.42 27.1445 160.42 28.1016V38H157.439V28.8262C157.439 28.1973 157.33 27.6641 157.111 27.2266C156.902 26.7891 156.592 26.4564 156.182 26.2285C155.781 26.0007 155.284 25.8867 154.691 25.8867C154.108 25.8867 153.593 26.0189 153.146 26.2832C152.709 26.5475 152.363 26.9167 152.107 27.3906C151.861 27.8646 151.738 28.4023 151.738 29.0039V38H148.826V28.6074C148.826 28.0514 148.712 27.5729 148.484 27.1719C148.266 26.7617 147.956 26.4473 147.555 26.2285C147.154 26.0007 146.671 25.8867 146.105 25.8867C145.531 25.8867 145.016 26.028 144.561 26.3105C144.114 26.584 143.763 26.9622 143.508 27.4453C143.253 27.9284 143.125 28.4844 143.125 29.1133V38H140.145ZM163.25 42.7852V23.6172H166.23V26.0781H166.299C166.581 25.513 166.941 25.0254 167.379 24.6152C167.826 24.2051 168.336 23.8906 168.91 23.6719C169.484 23.4531 170.113 23.3438 170.797 23.3438C172.018 23.3438 173.08 23.6491 173.982 24.2598C174.885 24.8613 175.582 25.7227 176.074 26.8438C176.566 27.9557 176.812 29.2773 176.812 30.8086V30.8223C176.812 32.3535 176.562 33.6751 176.061 34.7871C175.568 35.8991 174.876 36.7604 173.982 37.3711C173.089 37.9818 172.041 38.2871 170.838 38.2871C170.163 38.2871 169.53 38.1777 168.938 37.959C168.354 37.7402 167.839 37.4303 167.393 37.0293C166.946 36.6191 166.577 36.1361 166.285 35.5801H166.23V42.7852H163.25ZM170.018 35.7305C170.792 35.7305 171.462 35.5345 172.027 35.1426C172.592 34.7415 173.025 34.1719 173.326 33.4336C173.627 32.6953 173.777 31.8249 173.777 30.8223V30.8086C173.777 29.7878 173.627 28.9082 173.326 28.1699C173.025 27.4316 172.592 26.8665 172.027 26.4746C171.462 26.0827 170.792 25.8867 170.018 25.8867C169.27 25.8867 168.609 26.0918 168.035 26.502C167.461 26.903 167.01 27.4727 166.682 28.2109C166.363 28.9401 166.203 29.806 166.203 30.8086V30.8223C166.203 31.8158 166.367 32.6816 166.695 33.4199C167.023 34.1491 167.47 34.7188 168.035 35.1289C168.609 35.5299 169.27 35.7305 170.018 35.7305ZM179.205 38V18.2715H182.172V38H179.205ZM191.414 38.2871C190.038 38.2871 188.835 37.9863 187.805 37.3848C186.784 36.7741 185.991 35.9128 185.426 34.8008C184.861 33.6797 184.578 32.349 184.578 30.8086V30.7812C184.578 29.25 184.861 27.9284 185.426 26.8164C186 25.7044 186.798 24.8477 187.818 24.2461C188.848 23.6445 190.042 23.3438 191.4 23.3438C192.768 23.3438 193.962 23.6445 194.982 24.2461C196.012 24.8385 196.81 25.6908 197.375 26.8027C197.949 27.9147 198.236 29.2409 198.236 30.7812V30.8086C198.236 32.3581 197.949 33.6888 197.375 34.8008C196.81 35.9128 196.017 36.7741 194.996 37.3848C193.975 37.9863 192.781 38.2871 191.414 38.2871ZM191.428 35.7988C192.193 35.7988 192.859 35.6029 193.424 35.2109C193.989 34.819 194.426 34.2539 194.736 33.5156C195.046 32.7682 195.201 31.8659 195.201 30.8086V30.7812C195.201 29.7331 195.046 28.8398 194.736 28.1016C194.426 27.3542 193.984 26.7891 193.41 26.4062C192.836 26.0143 192.166 25.8184 191.4 25.8184C190.644 25.8184 189.979 26.0143 189.404 26.4062C188.839 26.7982 188.397 27.3633 188.078 28.1016C187.759 28.8398 187.6 29.7331 187.6 30.7812V30.8086C187.6 31.8659 187.755 32.7682 188.064 33.5156C188.383 34.2539 188.83 34.819 189.404 35.2109C189.979 35.6029 190.653 35.7988 191.428 35.7988ZM201.682 42.7988C201.399 42.7988 201.117 42.7852 200.834 42.7578C200.551 42.7305 200.319 42.6986 200.137 42.6621V40.3516C200.246 40.3698 200.383 40.388 200.547 40.4062C200.72 40.4336 200.907 40.4473 201.107 40.4473C201.809 40.4473 202.365 40.3288 202.775 40.0918C203.195 39.8548 203.523 39.39 203.76 38.6973L204.006 38.0137L198.77 23.6172H201.982L205.797 35.9629L205.277 35.3203H206.002L205.482 35.9629L209.311 23.6172H212.441L207.082 38.6562C206.727 39.6497 206.307 40.4518 205.824 41.0625C205.35 41.6732 204.776 42.1152 204.102 42.3887C203.436 42.6621 202.63 42.7988 201.682 42.7988ZM219.742 38.2871C218.339 38.2871 217.126 37.9863 216.105 37.3848C215.094 36.7741 214.314 35.9128 213.768 34.8008C213.23 33.6797 212.961 32.3626 212.961 30.8496V30.8359C212.961 29.3411 213.234 28.0332 213.781 26.9121C214.328 25.7819 215.098 24.9069 216.092 24.2871C217.085 23.6582 218.252 23.3438 219.592 23.3438C220.941 23.3438 222.098 23.6445 223.064 24.2461C224.04 24.8385 224.792 25.6816 225.32 26.7754C225.849 27.86 226.113 29.1224 226.113 30.5625V31.5605H214.424V29.4688H224.678L223.215 31.4238V30.2754C223.215 29.2637 223.06 28.4251 222.75 27.7598C222.449 27.0853 222.025 26.584 221.479 26.2559C220.941 25.9277 220.316 25.7637 219.605 25.7637C218.904 25.7637 218.275 25.9368 217.719 26.2832C217.163 26.6296 216.725 27.14 216.406 27.8145C216.087 28.4798 215.928 29.3001 215.928 30.2754V31.4238C215.928 32.3535 216.083 33.151 216.393 33.8164C216.712 34.4727 217.163 34.9785 217.746 35.334C218.329 35.6803 219.018 35.8535 219.811 35.8535C220.394 35.8535 220.909 35.7669 221.355 35.5938C221.802 35.4115 222.171 35.1745 222.463 34.8828C222.764 34.582 222.973 34.2493 223.092 33.8848L223.133 33.7754H225.949L225.922 33.9258C225.803 34.4909 225.58 35.0332 225.252 35.5527C224.924 36.0723 224.495 36.5417 223.967 36.9609C223.447 37.3711 222.832 37.6947 222.121 37.9316C221.41 38.1686 220.617 38.2871 219.742 38.2871ZM228.383 38V23.6172H231.363V26.0781H231.418C231.646 25.2305 232.051 24.5651 232.635 24.082C233.218 23.5898 233.92 23.3438 234.74 23.3438C234.959 23.3438 235.155 23.3574 235.328 23.3848C235.51 23.403 235.656 23.4258 235.766 23.4531V26.2012C235.647 26.1556 235.469 26.1191 235.232 26.0918C234.995 26.0553 234.731 26.0371 234.439 26.0371C233.811 26.0371 233.264 26.1738 232.799 26.4473C232.334 26.7116 231.979 27.099 231.732 27.6094C231.486 28.1107 231.363 28.7168 231.363 29.4277V38H228.383Z" fill="url(#paint5_linear_1050_8085)"/>
<defs>
<linearGradient id="paint0_linear_1050_8085" x1="92.2246" y1="32.5056" x2="113" y2="32.5056" gradientUnits="userSpaceOnUse">
<stop stop-color="#FF8E00"/>
<stop offset="1" stop-color="#F335EC"/>
</linearGradient>
<linearGradient id="paint1_linear_1050_8085" x1="71.7333" y1="24.873" x2="92.2086" y2="24.873" gradientUnits="userSpaceOnUse">
<stop stop-color="#FF8E00"/>
<stop offset="1" stop-color="#F335EC"/>
</linearGradient>
<linearGradient id="paint2_linear_1050_8085" x1="47.8222" y1="24.873" x2="68.2975" y2="24.873" gradientUnits="userSpaceOnUse">
<stop stop-color="#FF8E00"/>
<stop offset="1" stop-color="#F335EC"/>
</linearGradient>
<linearGradient id="paint3_linear_1050_8085" x1="0.700531" y1="24.7251" x2="19.2343" y2="24.7251" gradientUnits="userSpaceOnUse">
<stop stop-color="#FF8E00"/>
<stop offset="1" stop-color="#F335EC"/>
</linearGradient>
<linearGradient id="paint4_linear_1050_8085" x1="0" y1="28.5" x2="118.189" y2="28.5" gradientUnits="userSpaceOnUse">
<stop stop-color="#FF8E00"/>
<stop offset="1" stop-color="#F335EC"/>
</linearGradient>
<linearGradient id="paint5_linear_1050_8085" x1="123" y1="28.5" x2="237" y2="28.5" gradientUnits="userSpaceOnUse">
<stop stop-color="#FF8E00"/>
<stop offset="1" stop-color="#F335EC"/>
</linearGradient>
</defs>
</svg>
