<svg width="100" height="100" viewBox="0 0 100 100" fill="none" xmlns="http://www.w3.org/2000/svg">
<g clip-path="url(#clip0_777_10955)">
<rect width="100" height="100" rx="20" fill="url(#paint0_linear_777_10955)"/>
<mask id="mask0_777_10955" style="mask-type:alpha" maskUnits="userSpaceOnUse" x="-15" y="-4" width="123" height="123">
<path d="M58.9399 19.1483C57.0127 18.0356 54.7223 17.7341 52.5727 18.3101C50.4231 18.8861 48.5904 20.2924 47.4777 22.2196L46.0792 24.6419L29.1233 14.8524C27.196 13.7397 24.9057 13.4382 22.7561 14.0142C20.6065 14.5902 18.7737 15.9965 17.661 17.9237L13.79 24.6286L44.9983 55.7593C46.0353 56.793 47.3246 57.5374 48.7383 57.9185L91.3025 69.3804L95.1735 62.6756C96.2862 60.7483 96.5877 58.4579 96.0118 56.3084C95.4358 54.1588 94.0295 52.326 92.1022 51.2133L75.1463 41.4238L76.5448 39.0016C77.6575 37.0743 77.9591 34.7839 77.3831 32.6343C76.8071 30.4848 75.4008 28.652 73.4735 27.5393L58.9399 19.1483ZM56.1429 23.9929L70.6765 32.3838C71.319 32.7547 71.7877 33.3656 71.9797 34.0822C72.1717 34.7987 72.0712 35.5622 71.7003 36.2046L70.3018 38.6269L50.9237 27.4389L52.3222 25.0166C52.6931 24.3742 53.304 23.9054 54.0205 23.7134C54.7371 23.5214 55.5005 23.622 56.1429 23.9929Z" fill="black"/>
<path d="M-4.71486 56.6801C-5.82757 58.6073 -6.1291 60.8977 -5.55312 63.0473C-4.97714 65.1969 -3.57083 67.0296 -1.64355 68.1423L61.3353 104.503C63.2626 105.616 65.5529 105.917 67.7025 105.341C69.8521 104.765 71.6849 103.359 72.7976 101.432L88.6006 74.0603L44.604 62.2042C44.1314 62.0771 43.7005 61.8283 43.3541 61.4826L11.0881 29.3085L-4.71486 56.6801Z" fill="black"/>
</mask>
<g mask="url(#mask0_777_10955)">
<circle cx="49.6426" cy="46.3996" r="38.3511" transform="rotate(15 49.6426 46.3996)" fill="white"/>
</g>
</g>
<defs>
<linearGradient id="paint0_linear_777_10955" x1="0.526664" y1="2.02448e-06" x2="99.4733" y2="100" gradientUnits="userSpaceOnUse">
<stop stop-color="#FF8E00"/>
<stop offset="1" stop-color="#F335EC"/>
</linearGradient>
<clipPath id="clip0_777_10955">
<rect width="100" height="100" rx="20" fill="white"/>
</clipPath>
</defs>
</svg>
